<svg xmlns="http://www.w3.org/2000/svg" width="400" height="400" xmlns:v="https://vecta.io/nano"><path d="M318.529.836c-5.39 1.3-6.951 2.718-45.87 41.691L233.99 81.25h-90.823-90.823V51.258c0-34.209.202-33.118-6.281-33.823-18.105-1.968-39.7 14.712-44.901 34.683-1.773 6.805-1.75 263.214.024 270.179 3.728 14.637 15.203 26.785 30.064 31.826l5.078 1.723 92.915.232 92.916.232-16.939 17.003c-18.502 18.571-19.249 19.755-15.445 24.452l1.493 1.844H293.99l104.365-1.488 1.645-1.488V293.629c0-101.962-.016-103.02-1.562-104.566-3.68-3.68-6.393-2.436-16.53 7.575l-9.252 9.138v-60.345-60.346l-1.917-1.917-1.918-1.918H345.55h-23.271l16.909-16.992c26.13-26.259 26.408-28.927 5.203-49.97C331.18 1.177 326.724-1.14 318.529.836m18.125 23.666c12.295 12.378 12.255 12.124 3.318 21.061l-6.381 6.381-13.073-13.072-13.072-13.073 5.457-5.561c9.691-9.877 9.708-9.874 23.751 4.264m-296.81 94.602l.896 90.602c1.846 4.053 9.566 4.069 11.118.025.267-.696.486-27.076.486-58.623V93.75h84.546 84.546l-16.577 16.643c-18.11 18.181-19.152 19.845-15.015 23.982 4.591 4.591 3.323 5.624 48.429-39.453l41.042-41.015 13.074 13.091 13.073 13.09-60.353 60.35-60.354 60.35-13.066-13.089-13.067-13.09 12.095-12.159c13.217-13.287 14.449-15.565 10.533-19.481-4.065-4.065-5.948-2.938-22.321 13.356l-14.991 14.919-10.007 28.441-10.007 28.44h-11.06c-10.157 0-11.178.131-12.509 1.601-2.03 2.244-1.885 6.591.292 8.768l1.74 1.74h84.032 84.032l1.493-1.844c1.761-2.175 1.948-6.22.385-8.358-1.076-1.472-2.843-1.528-59.961-1.907l-58.852-.391 16.797-5.819 16.796-5.819 61.335-61.173 61.335-61.173h25.189 25.188v62.295 62.295l-42.578 42.605c-25.712 25.727-42.614 43.216-42.668 44.15-.196 3.375.257 4.744 2.13 6.428 4.312 3.88 2.106 5.786 58.298-50.382L387.5 209v25.188 25.187h-6.286c-8.667 0-11.886 3.083-9.253 8.861 1.226 2.692 3.857 3.639 10.107 3.639h5.432v8.12 8.121l-6.326.287c-14.065.639-14.31 12.378-.258 12.378h6.584v8.594 8.594h-5.432c-8.321 0-11.885 2.739-10.539 8.101.851 3.392 3.115 4.399 9.895 4.399h6.076v8.594 8.593h-6.286c-8.667 0-11.886 3.083-9.253 8.862 1.226 2.691 3.857 3.638 10.107 3.638h5.432v13.672V387.5h-89.254-89.254l30.27-30.277c33.542-33.551 33.491-33.482 28.211-37.635-4.38-3.445-5.59-2.755-19.797 11.297l-13.058 12.917-97.973-.249c-107.546-.273-100.644.039-108.632-4.913-26.61-16.494-16.98-54.689 14.939-59.252 10-1.43 9.392.365 9.392-27.701 0-23.414-.031-23.885-1.699-25.66-2.327-2.477-6.346-2.428-8.884.109l-1.917 1.918v19.454 19.455l-5.118 1.263c-6.468 1.596-12.012 4.358-17.734 8.833l-4.492 3.513V169.508c0-123.601-.372-115.065 5.397-123.99 4.622-7.152 14.698-14.219 21.361-14.982.322-.037.586 39.819.586 88.568M311.712 48.04l12.866 12.884-5.047 5.092-5.047 5.092-13.095-13.078-13.095-13.079 4.854-4.897c5.976-6.03 3.506-7.093 18.564 7.986M162.864 196.848c5.558 5.571 9.932 10.304 9.72 10.516s-3.782 1.57-7.931 3.016l-7.544 2.628-5.307-5.348-5.307-5.348 2.69-7.797c1.48-4.288 2.889-7.796 3.131-7.796s4.989 4.558 10.548 10.129m185.964 85.266c-2.498 1.407-65.219 64.15-66.457 66.48-1.536 2.891-1.407 4.737.498 7.16l1.619 2.059h34.964 34.963l1.699-1.809c2.399-2.553 2.706-69.462.331-72.321-1.651-1.989-5.474-2.777-7.617-1.569m-3.515 42.105v21.094h-21.284-21.284l21.083-21.094 21.284-21.094c.11 0 .201 9.492.201 21.094" fill-rule="evenodd"/></svg>