<?xml version="1.0" encoding="utf-8"?>
<!-- Generator: Adobe Illustrator 26.0.0, SVG Export Plug-In . SVG Version: 6.00 Build 0)  -->
<svg version="1.1" id="Layer_1" xmlns="http://www.w3.org/2000/svg" xmlns:xlink="http://www.w3.org/1999/xlink" x="0px" y="0px"
	 viewBox="0 0 38.4 38.3" style="enable-background:new 0 0 38.4 38.3;" xml:space="preserve">
<style type="text/css">
	.st0{fill:url(#SVGID_1_);}
</style>
<g>
	
		<radialGradient id="SVGID_1_" cx="-871.9494" cy="580.2514" r="1.0011" gradientTransform="matrix(0 38.301 44.1228 0 -25583.0098 33396.4727)" gradientUnits="userSpaceOnUse">
		<stop  offset="0" style="stop-color:#20C6B7"/>
		<stop  offset="1" style="stop-color:#4D9ABF"/>
	</radialGradient>
	<path class="st0" d="M27.9,13.3L27.9,13.3C27.9,13.3,27.9,13.3,27.9,13.3c-0.1,0-0.1-0.1-0.1-0.1l0.8-4.7l3.6,3.6l-3.8,1.6
		c0,0,0,0,0,0h0c0,0,0,0,0,0C28.2,13.5,28.1,13.4,27.9,13.3z M33.1,13l3.9,3.9c0.8,0.8,1.2,1.2,1.4,1.7c0,0.1,0,0.1,0.1,0.2
		l-9.3-3.9c0,0,0,0,0,0c0,0-0.1,0-0.1-0.1s0-0.1,0.1-0.1l0,0L33.1,13z M38.3,20c-0.2,0.4-0.6,0.8-1.2,1.4l-4.4,4.4L27,24.6l0,0
		c0,0-0.1,0-0.1-0.1c0-0.5-0.3-0.9-0.7-1.2c0,0,0-0.1,0-0.1c0,0,0,0,0,0l1.1-6.5l0,0c0,0,0-0.1,0.1-0.1c0.5-0.1,0.9-0.3,1.2-0.7
		c0,0,0,0,0,0c0,0,0.1,0,0.1,0L38.3,20L38.3,20z M31.6,26.8L24.5,34l1.2-7.6l0,0c0,0,0,0,0,0c0,0,0,0,0.1,0l0,0
		c0.3-0.1,0.5-0.3,0.7-0.5c0,0,0.1-0.1,0.1-0.1c0,0,0,0,0,0L31.6,26.8L31.6,26.8z M22.9,35.5l-0.8,0.8l-9-12.9c0,0,0,0,0,0
		c0,0,0,0,0-0.1c0,0,0,0,0,0l0,0c0,0,0.1-0.1,0.1-0.1l0,0l0,0c0,0,0,0,0.1-0.1c0,0,0.1,0,0.1,0l9.9,2c0,0,0.1,0,0.1,0c0,0,0,0,0,0
		c0.1,0.5,0.5,1,1,1.2c0,0,0,0,0,0.1c0,0,0,0,0,0C24.3,27.2,23.2,33.8,22.9,35.5z M21.2,37.2c-0.6,0.6-0.9,0.9-1.3,1
		c-0.4,0.1-0.8,0.1-1.2,0c-0.5-0.1-0.9-0.5-1.7-1.4l-9-9l2.3-3.6c0,0,0,0,0,0c0,0,0.1,0,0.1,0c0.5,0.2,1.1,0.1,1.6-0.1
		c0,0,0.1,0,0.1,0c0,0,0,0,0,0L21.2,37.2L21.2,37.2z M7.2,27L5.1,25l4.1-1.7c0,0,0,0,0,0c0,0,0.1,0,0.1,0.1c0,0.1,0.1,0.1,0.1,0.2
		l0,0c0,0,0,0,0,0L7.2,27L7.2,27z M4.2,24.1l-2.6-2.6c-0.4-0.4-0.8-0.8-1-1l7.9,1.6c0,0,0,0,0,0c0,0,0.1,0,0.1,0.1
		c0,0-0.1,0.1-0.1,0.1l0,0L4.2,24.1z M0.1,19.1c0-0.2,0-0.3,0.1-0.5c0.1-0.5,0.6-0.9,1.4-1.7l3.3-3.3C6.5,15.8,8,18,9.5,20.2
		c0,0,0.1,0.1,0,0.1c-0.1,0.2-0.3,0.3-0.4,0.5c0,0,0,0-0.1,0.1c0,0,0,0,0,0h0L0.1,19.1L0.1,19.1z M5.8,12.7l4.5-4.5
		c0.4,0.2,2,0.8,3.3,1.4c1,0.4,2,0.8,2.3,1c0,0,0.1,0,0.1,0.1c0,0,0,0,0,0.1c-0.1,0.7,0.1,1.3,0.5,1.8c0,0,0,0.1,0,0.1l0,0l-4.6,7.1
		c0,0,0,0,0,0c0,0-0.1,0-0.1,0c-0.2,0-0.4-0.1-0.5-0.1c-0.2,0-0.3,0-0.5,0.1h0c0,0,0,0-0.1,0c0,0,0,0,0-0.1L5.8,12.7L5.8,12.7z
		 M11.2,7.3L17,1.4c0.8-0.8,1.2-1.2,1.7-1.4c0.4-0.1,0.8-0.1,1.2,0c0.5,0.1,0.9,0.5,1.7,1.4l1.3,1.3l-4.1,6.4c0,0,0,0,0,0
		c0,0-0.1,0-0.1,0c-0.7-0.2-1.4-0.1-1.9,0.4c0,0-0.1,0-0.1,0C16,9.3,11.8,7.5,11.2,7.3z M23.7,3.6l3.8,3.8l-0.9,5.7v0c0,0,0,0,0,0
		c0,0,0,0,0,0c-0.2,0.1-0.4,0.2-0.5,0.3c0,0,0,0,0,0c0,0,0,0,0,0c0,0,0,0,0,0L20.1,11l0,0c0,0-0.1,0-0.1-0.1c0-0.3-0.1-0.6-0.3-0.9
		c0,0-0.1-0.1,0-0.1L23.7,3.6z M19.8,12.2l5.5,2.3c0,0,0.1,0,0.1,0.1c0,0,0,0,0,0.1c0,0.1,0,0.2,0,0.3V15c0,0,0,0.1-0.1,0.1l0,0
		c-0.9,0.4-12.1,5.2-12.1,5.2s0,0-0.1,0c0,0,0-0.1,0-0.1c0,0,0,0,0,0l4.5-6.9l0,0c0,0,0.1-0.1,0.1-0.1l0,0c0.1,0,0.2,0,0.3,0
		c0.7,0,1.3-0.3,1.7-0.9C19.7,12.2,19.7,12.2,19.8,12.2C19.7,12.2,19.7,12.2,19.8,12.2z M13.5,21.4l12.3-5.2c0,0,0,0,0,0
		c0.1,0.1,0.1,0.1,0.2,0.2l0,0c0,0,0,0,0.1,0.1c0,0,0,0,0,0l-1.1,6.5l0,0c0,0,0,0.1-0.1,0.1c-0.6,0-1.1,0.4-1.4,0.8l0,0
		c0,0,0,0,0,0.1c0,0,0,0-0.1,0l-9.8-2C13.7,21.9,13.5,21.4,13.5,21.4z"/>
</g>
</svg>
