<svg xmlns="http://www.w3.org/2000/svg" viewBox="0 0 400 400" xmlns:v="https://vecta.io/nano"><path d="M284.4 8.7c-4.2 1.7-18.2 19.5-19.1 24.4-1.1 5.7 1.7 11.4 6.9 14.2 3.3 1.8 3.3 1.7.6 4.8l-2.1 2.5c-8.8-5.8-20.6-12.9-27.1-5.6-4.4 5.3-47.6 76.6-58.8 94.7-2.8 0-14.7.2-15.3-.4 33.7-52.8-5.6-124.6-69.5-124.6C38.2 18.8-2.2 87 28.6 139.6c2.5 4.3 2.6 4.2-3.2 4.2-15.3 0-19.1 6.2-19.1 31.2-.3 27.9 5.6 32.1 23.6 31.2-6.8 36.1-23.6 147.6-23.5 154.7.5 13.1 7.7 23.8 19.7 29.7l5.5 2.7 111.3.2 113.9-1.4c6.9-2.7 5.6-15.1 5.7-23.4 109.1-.6 174.3-138.6 99.7-213.2-5.7-5.9-8.9-9.9-10.9-13.8-2.6-5.3-8.1-10.9-12.4-15.1 14.4-20.4 11.3-25.5-9.1-36.7-1-.6-.9-1.2.3-3.9 1.7-3.7 1.5-3.7 6.3-1.5 8.3 3.7 11.9 1.7 21.9-11.5 14.2-18.8 14.3-18.7-29.4-44.1C289.8 6 290.4 6.3 284.4 8.7m67.8 49.5c0 .9-8.3 11.7-10.2 14.3l-62.9-36.9c0-.9 8.3-11.7 10.2-14.3l62.9 36.9M115.5 33.7c41.9 9.6 64.4 56.1 46.2 95.1-24.5 52.3-98.9 52.3-123.4 0-24-51.3 21.9-107.9 77.2-95.1m188.2 32l16.4 9.7c.3.3-2.9 6.6-3.3 6.6-.5 0-32-18.9-33-19.9-1-.9 1.7-5.9 3.1-5.9.4.1 7.9 4.3 16.8 9.5m-11.2 17.6l40.9 24.7c1.8 1.4-6 12.5-8.3 11.9-41.4-10.4-74.4 38.9-46.9 70.2 1.3 1.5 2.4 2.9 2.4 3.2 0 .9-9.8 16.1-10.3 16.1-.4 0-75.5-48.2-78.5-50.4-.2-.2 60.2-99.5 60.6-99.6l40.1 23.9m-179.1 8.9l-25.8 28.1c-.3 0-4.9-5.5-10.1-12.1-11-13.9-9.6-13.2-15.5-8.5l-4.8 3.8c-.2.2 26.7 34.2 29.2 36.9 1 1 61.3-64.6 61.9-67.4.2-.8-8.4-9.1-9.3-9.1-.2.2-11.7 12.9-25.6 28.3m211.8 42.4c29.8 13.7 20 58-12.7 58-34.5 0-42.4-47.5-9.9-59.1 6.1-2.2 16.6-1.7 22.6 1.1m-20.9 10.6c-14.4 6.7-14.1 28.7.6 34.8 35.3 11 34.2-46.9-.6-34.8M46 161c29.6 27.1 78.5 27.1 108.1 0 4.8-4.4 5.5-4.8 8.8-4.8 4.4 0 4.4-.5-.3 6.7-8.1 11.7-3.1 19.1 7 24.6-.9 1.5-2.6 4.6-3.5 6.2H96c-77.3 0-74.5.2-76.2-4.7-1.2-3.3-1.2-24.7 0-28.1.6-5.6 14.2-4.7 21.1-4.7L46 161m270.4-2.4c4.9 5.3-2.6 12.7-7.8 7.8-4.9-5.3 2.5-12.7 7.8-7.8M227.1 198l44.6 28.9c-1.4 2.5-3.2 5.3-5 7.5l-94.6-61.3c0-.5 3.8-6.1 4.6-7.5 6.2 3.7 22.4 14.3 50.4 32.4m134.5-22.3c57 79.6-20.9 193.9-123.6 180.4l-14-.2c-.6-2.4-2.8-10.6-2.8-11.5 9.4-2.1 44.3 3.7 41.4-10.9 0-2 .3-2.1 3-2.1 65.7-.1 115-85 79-138.4 14.8-15.4 7.6-31.4 17-17.3m-172.7 24.4l6.4 4.3c.5.4-9.4 16.8-10 16.5-1.5-.6-13.3-9.7-13.3-10.2-.1-1.7 8.9-15.4 9.9-15 .4.2 3.6 2.2 7 4.4m123.6 6.1c8.4.4 14.6-2.2 20.4-4.4 24.6 29.1 3.3 86.2-30.7 104.3-13.9 8.5-39.6 15-39.7 10.1 0-2.7-2.7-6.7-5.7-8.5-2.4-1.5-4-1.6-33.4-1.6h-30.9l-11.3-71.3c0-.3 1.4-.4 3-.1 6.6 1.1 10.1-1.6 17.1-13.4 5.9-9.9 5.5-9.7 10-6.8l3.3 2.1c-10 18.6-22.9 26.9 0 41.7 22 19.5 26.3-1.2 37.4-16.9 11 6.7 19.4 11.6 28.5-3.4 6.5-9.7 5.9-14.1.9-20.5l9.9-15.8c7.7 2.7 12.3 4.9 21.2 4.5M158 209.3c-1.2 5.8 3.2 10.7 7.7 14.3l13.1 82.4c0 .2-15.9.3-35.4.3-45.3 0-43.5-.7-43.5 18.7 0 17.9 1.1 18.7 24.8 18.7 9.1 0 16.6.3 16.6.6-.1 1-2.2 9.2-2.8 11.5l-15.6.4c-21.5.5-23 1.6-23 16.7v8.5l-31.4-.2c-30.9-.2-31.5-.3-35.4-2-8.3-3.8-13.6-11.6-13.7-19.9.2-4.7 5.9-45 7.8-52.9h47.6v-12.5H29.5c-.2-4.4 2.5-18 3.6-24.6l60.5-.4v-12.5H64.3c-27.6 0-29.3-.1-29-1.4.5-2 3.1-18.7 3.8-23.6h29.5v-12.5H41.1c.7-3.7 1.4-8.5 1.9-12.5h115.3l-.3 2.9M81.2 225v6.2h12.5v-12.5H81.2v6.3m153 4.5c9.4 5.8 5.8 3.7-.2 15.3-2.5 4.2-4.8 7.5-5.1 7.4-1.5-.6-13.2-9.7-13.3-10.3-.1-1.7 10.3-17.7 11.2-17.2.5.4 3.9 2.5 7.4 4.8M250 325v6.2H112.5v-12.5H250v6.3m-41.3 24.6c.8 3 1.4 5.7 1.4 6.1 1.5.7-59.3.7-57.8.1 0-.5 2.2-9.6 2.7-11.1-2-1.5 44-.5 52.2-.6l1.5 5.5M250 375v6.2H112.5v-12.5H250v6.3" fill-rule="evenodd"/></svg>