<svg xmlns="http://www.w3.org/2000/svg" width="400" height="400" xmlns:v="https://vecta.io/nano"><path d="M1.563 45.313c-2.467 2.466-2.467 306.908-.001 309.375s394.407 2.468 396.875 0 2.467-306.909.001-309.375-50.539-2.427-52.77.038c-2.03 2.243-1.886 6.591.29 8.768 1.694 1.695 2.255 1.746 21.64 1.973l19.902.233v143.713V343.75H200 12.5V200.006 56.261l156.71-.201 156.709-.201 1.494-1.844c1.968-2.431 1.934-6.699-.069-8.702-2.467-2.468-323.314-2.468-325.781 0m332.12 56.054c-2.895 2.403-2.994 6.005-.241 8.758l2.375 2.375h17.533c16.555 0 17.648-.09 19.592-1.619 2.626-2.066 2.885-6.929.496-9.318-2.254-2.254-37.07-2.425-39.755-.196m-74.182 24.173c-2.391.954-22.001 28.387-22.001 30.778 0 4.492 5.3 7.582 9.318 5.431.771-.413 5.357-6.038 10.19-12.5l8.788-11.749h24.419c27.965 0 28.535-.123 28.535-6.171 0-6.374.182-6.338-30.91-6.267l-28.339.478m74.356.614c-3.483 2.439-2.886 8.693.998 10.463 3.904 1.779 35.67 1.165 38.087-.736 2.626-2.066 2.885-6.929.496-9.318-2.079-2.079-36.687-2.437-39.581-.409m-139.021 19.655c-13.027 8.826-43.404 31.1-44.042 32.293-.497.927-.794 12.329-.794 30.44V237.5h-38.567c-43.91 0-42.683-.177-42.683 6.171 0 4.416 2.435 6.329 8.058 6.329 5.29 0 5.222-.281 1.317 5.469-3.706 5.457-4.105 8.963-1.317 11.582 4.377 4.112 7.467 2.328 14.568-8.411l5.712-8.64h7.706c4.238 0 7.706.164 7.706.364s-1.406 2.54-3.125 5.2c-3.66 5.663-4.035 8.933-1.317 11.487 4.377 4.112 7.467 2.328 14.568-8.411l5.712-8.64h7.706c4.238 0 7.706.164 7.706.364s-1.406 2.54-3.125 5.2c-3.66 5.663-4.035 8.933-1.317 11.487 4.377 4.112 7.467 2.328 14.568-8.411l5.712-8.64h8.113 8.113l-3.532 5.265c-5.02 7.483-4.036 13.485 2.21 13.485 3.677 0 5.124-1.365 11.11-10.479l5.414-8.243 8.024-.014 8.024-.014-3.532 5.265c-4.056 6.046-4.433 8.749-1.614 11.567 4.394 4.395 7.651 2.528 14.934-8.561l5.414-8.243 8.024-.014 8.024-.014-3.532 5.265c-4.056 6.046-4.433 8.749-1.614 11.567 4.394 4.395 7.651 2.528 14.934-8.561l5.414-8.243 8.037-.014 8.036-.014-3.209 4.726c-5.511 8.115-4.391 14.024 2.656 14.024 3.182 0 4.196-1.06 11.042-11.546l4.688-7.179 8.097-.013 8.098-.012-1.412 2.148c-6.508 9.906-7.094 12.715-3.22 15.429 4.695 3.288 7.479 1.405 15.306-10.35l4.812-7.227h5.703c6.801 0 9.1-1.627 9.1-6.439 0-6.22 1.119-6.061-42.683-6.061H250v-28.958c0-18.111-.297-29.513-.794-30.44-.436-.816-9.84-7.952-20.898-15.858C202.12 143.518 202.475 143.75 200 143.75c-1.169 0-3.493.927-5.164 2.059M26.71 151.593c-2.542 2.368-2.362 7.155.348 9.288 2.409 1.894 27.996 2.486 31.837.736 4.078-1.858 4.348-8.766.424-10.866-3.057-1.636-30.716-.922-32.609.842m307.147-.439c-3.483 2.439-2.886 8.693.998 10.463 3.904 1.779 35.67 1.165 38.087-.736 2.71-2.133 2.89-6.92.348-9.288-2.26-2.106-36.509-2.487-39.433-.439m-115.064 20.019l18.707 13.361v26.483V237.5h-9.375-9.375v-16.832c0-22.317 1.496-20.668-18.75-20.668s-18.75-1.649-18.75 20.668V237.5h-9.375-9.375v-26.482-26.483l18.555-13.318 18.793-13.362c.131-.023 8.657 5.97 18.945 13.318m-192.094 5.635c-2.478 2.637-2.306 6.976.359 9.073 3.126 2.458 30.309 2.487 32.941.035 3.184-2.966 2.573-9.041-1.05-10.431-4.088-1.569-30.554-.483-32.25 1.323m50 0c-2.478 2.637-2.306 6.976.359 9.073 1.947 1.531 3.042 1.62 20.118 1.633l18.058.014 5.414 8.243c2.978 4.534 6.132 8.746 7.01 9.361 4.113 2.881 9.425.14 9.402-4.853-.014-3.27-12.892-23.75-15.583-24.783-4.248-1.63-43.083-.492-44.778 1.312m-49.641 24.811c-2.749 2.163-2.873 6.718-.25 9.182 1.724 1.62 2.492 1.699 16.458 1.699 15.745 0 16.939-.251 18.44-3.876 1.151-2.778-.008-6.599-2.387-7.873-3.072-1.644-29.988-.92-32.261.868M206.25 225v12.5H200h-6.25V225v-12.5H200h6.25V225" fill-rule="evenodd"/></svg>