<svg xmlns="http://www.w3.org/2000/svg" width="400" height="400" xmlns:v="https://vecta.io/nano"><path d="M25.829 10.955C14.159 15.163 4.693 26.176 1.238 39.566c-1.884 7.304-1.884 237.783 0 245.087 3.525 13.66 13.068 24.546 25.169 28.709 3.915 1.347 6.849 1.482 32.265 1.482h27.96l2.073-1.784c3.34-2.873 3.573-8.153.512-11.581l-2.368-2.651-27.604-.39c-33.146-.47-34.234-.847-40.416-14.027l-2.032-4.333-.211-75.195-.21-75.195h169.546 169.547v39.453 39.453h-3.541c-4.186 0-7.627 1.313-11.086 4.23l-2.518 2.122-6.857-2.75-6.858-2.751-.483-3.803c-1.608-12.641-8.622-16.922-26.968-16.461-15.718.395-22.91 5.57-22.932 16.5-.006 3.329-.237 3.822-2.156 4.609-1.181.484-4.319 1.852-6.972 3.039-4.714 2.11-4.854 2.125-6.16.682-7.913-8.743-19.137-7.212-30.675 4.185-12.264 12.114-14.06 20.259-6.617 30.009l2.664 3.49-2.749 6.379-2.749 6.379-3.799.484c-12.097 1.54-16.563 8.095-16.571 24.321l-.004 9.18h-23.477c-25.901 0-26.92.166-29.314 4.795-1.481 2.864-.997 6.713 1.183 9.407l1.468 1.813 35.265.391 35.264.39 2.773 6.828 2.772 6.827-2.148 2.548c-7.983 9.467-6.058 18.169 6.808 30.775 11.349 11.12 18.867 12.516 28.363 5.265 3.49-2.664 3.538-2.676 6.029-1.387 1.381.714 4.287 1.901 6.458 2.637l3.946 1.34.477 4.359c1.315 12.038 6.731 15.72 23.618 16.059 18.945.381 26.296-4.218 26.296-16.449v-3.358l7.097-3 7.098-2.999 2.082 1.946c9.102 8.51 18.945 6.669 31.072-5.811 10.974-11.292 12.627-20.111 5.36-28.6l-2.636-3.08 2.868-7.145 2.868-7.145 3.541-.017c12.191-.059 16.701-7.426 16.297-26.616-.345-16.365-4.121-21.929-15.697-23.123l-4.186-.432-2.815-6.628-2.815-6.628 2.646-3.466c6.242-8.177 5.583-16.882-1.92-25.398l-3.204-3.635-.014-85.818-1.167-91.264c-2.754-13-10.721-23.883-21.322-29.122l-5.931-2.931-156.682-.171c-153.898-.169-156.756-.144-160.93 1.36M342.724 28.12c4.662 2.674 7.103 5.588 10.175 12.147l2.179 4.655.24 34.18.241 34.179H185.952 16.345l.226-34.57.226-34.57 2.254-4.881c2.4-5.197 7.391-10.477 11.656-12.332 2.102-.914 26.628-1.089 155.231-1.109l152.734-.023 4.052 2.324m-279.5 16.631c-11.361 4.795-18.163 16.091-16.756 27.828 3.966 33.085 53.253 30.273 53.113-3.031-.08-19.137-19.074-32.091-36.357-24.797m69.593-.479c-23.108 8.084-23.878 41.649-1.152 50.214 16.037 6.044 33.576-3.896 36.289-20.568 3.219-19.78-16.29-36.24-35.137-29.646m93.218-.189c-22.401 7.075-24.78 38.336-3.769 49.537l3.906 2.083 41.404.222c36.601.196 41.858.074 45.313-1.055 22.507-7.355 24.271-39.261 2.736-49.473l-4.297-2.038-41.015-.153c-32.129-.12-41.723.07-44.278.877m-147.83 17.06c3.891 2.592 5.83 6.959 4.726 10.645-2.997 10.003-16.859 10.223-19.596.312-2.385-8.638 7.46-15.892 14.87-10.957m67.962-.558c7.208 3.727 7.147 14.197-.103 17.946-8.177 4.229-17.865-4.776-13.716-12.749 2.986-5.74 8.651-7.87 13.819-5.197m162.397-.054c7.497 3.877 7.497 14.123 0 18-3.422 1.769-75.52 1.721-78.95-.053-7.107-3.676-6.931-14.808.284-17.945 3.844-1.671 75.435-1.672 78.666-.002m-187.09 114.671c-2.115 1.818-18.289 65.625-18.332 72.319-.05 7.751 12.834 10.167 15.588 2.923 2.308-6.072 16.492-68.333 16.119-70.756-.899-5.839-8.744-8.47-13.375-4.486M72.2 179.628c-2.191.935-23.271 23.936-26.189 28.575-2.139 3.401-2.001 9.669.278 12.586 4.502 5.762 22.811 25.844 24.671 27.058 6.781 4.429 15.518-3.464 11.726-10.594-.499-.938-5.069-6.336-10.156-11.994s-9.249-10.62-9.249-11.027 4.061-5.27 9.025-10.806c10.284-11.472 11.718-13.778 10.988-17.667-.911-4.859-6.648-8.029-11.094-6.131m87.478.008c-2.8 1.193-4.99 4.688-4.99 7.964 0 3.18-.375 2.684 15.82 20.946 5.573 6.284 6.098 4.448-4.76 16.625-11.958 13.411-12.761 15.068-9.76 20.15 4.629 7.835 9.044 5.87 23.712-10.555 18.851-21.11 18.812-20.019 1.437-39.569-14.75-16.596-16.334-17.745-21.459-15.561M307.813 212.5c.57 9.703.572 9.705 12.109 13.308 3.008.94 8.044 3.076 11.193 4.747 8.454 4.488 10.991 4.286 17.247-1.376l4.879-4.415 5.799 5.76 5.799 5.76-3.814 3.928c-6.777 6.98-6.962 8.582-2.11 18.245 1.896 3.774 4.224 9.48 5.172 12.679 2.521 8.5 3.899 9.633 12.295 10.114l6.821.391.222 8.398.222 8.399-6.082.002c-9.407.005-10.716 1.132-13.977 12.035-.759 2.539-2.896 7.563-4.75 11.165-4.74 9.213-4.608 10.798 1.417 17.073l4.786 4.985-5.305 5.495c-6.378 6.606-6.467 6.615-12.146 1.198-5.61-5.351-7.992-5.605-15.132-1.612-2.641 1.477-8.452 3.924-12.914 5.439-10.806 3.668-11.271 4.189-11.615 13.016l-.274 7.036-8.32-.221-8.319-.221-.391-6.821c-.48-8.376-1.621-9.776-9.99-12.257-3.131-.928-8.74-3.255-12.464-5.172-9.597-4.938-11.453-4.814-17.695 1.18l-4.858 4.665-5.621-5.66c-6.738-6.782-6.665-6.086-1.219-11.589 5.645-5.704 5.813-7.927 1.236-16.337-1.743-3.202-4.107-8.866-5.255-12.587-2.86-9.271-4.042-10.274-12.733-10.795l-6.792-.408v-8.203-8.203l6.754-.225c8.527-.283 9.976-1.41 12.394-9.642.93-3.167 3.243-8.858 5.139-12.647 4.803-9.598 4.708-11.583-.849-17.585-5.3-5.725-5.375-4.967 1.125-11.417l5.421-5.38 4.743 4.39c6.69 6.194 8.023 6.304 17.667 1.459 4.269-2.144 10.246-4.628 13.281-5.518 7.821-2.293 9.231-4.012 9.555-11.649.364-8.593-.263-8.046 8.936-7.79l8.022.222.391 6.641m-18.75 30.069c-30.523 6.87-47.013 40.97-33.25 68.759 18.931 38.223 75.116 35.015 89.247-5.096 12.447-35.332-19.666-71.841-55.997-63.663m15.713 16.036c25.554 4.81 35.094 35.267 16.783 53.579-25.292 25.291-66.072-3.776-50.747-36.171 5.822-12.307 20.661-19.913 33.964-17.408m-190.249 40.987c-3.295 1.775-4.318 3.494-4.346 7.304-.076 10.317 15 11.071 16.157.807.735-6.519-6.079-11.198-11.811-8.111" fill-rule="evenodd"/></svg>