<?xml version="1.0" encoding="utf-8"?>
<svg version="1.1" id="Layer_1" xmlns="http://www.w3.org/2000/svg" xmlns:xlink="http://www.w3.org/1999/xlink" x="0px" y="0px"
	 viewBox="0 0 676 420" style="enable-background:new 0 0 676 420;" xml:space="preserve">
<style type="text/css">
	.st0{fill:#E0E2E2;}
	.st1{fill:#101111;}
	.st2{fill:#00D1B2;}
	.st3{fill:url(#SVGID_1_);}
	.st4{fill:#B8B9B9;}
	.st5{fill:#23262B;}
	.st6{fill:#1D2024;}
	.st7{fill:#EE6A5E;}
	.st8{fill:#61C454;}
	.st9{fill:#F4BC4E;}
	.st10{fill:#F19436;}
	.st11{fill:#D77976;}
	.st12{fill:#76B5F0;}
	.st13{fill:#C597D4;}
	.st14{fill:#8498A4;}
</style>
<path class="st0" d="M53,20C53,9,62,0,73,0h530c11,0,20,9,20,20v376H53V20z"/>
<path class="st1" d="M55,22c0-11,9-20,20-20h526c11,0,20,9,20,20v374H55V22z"/>
<path class="st2" d="M63,31c0-2.2,1.8-4,4-4h542c2.2,0,4,1.8,4,4v357H63V31z"/>
<linearGradient id="SVGID_1_" gradientUnits="userSpaceOnUse" x1="415.6648" y1="425.5178" x2="278.6648" y2="64.5178" gradientTransform="matrix(1 0 0 -1 0 430)">
	<stop  offset="0" style="stop-color:#008182;stop-opacity:0"/>
	<stop  offset="1" style="stop-color:#008182"/>
</linearGradient>
<path class="st3" d="M63,31c0-2.2,1.8-4,4-4h542c2.2,0,4,1.8,4,4v357H63V31z"/>
<path class="st0" d="M0,396h676v12c0,6.6-5.4,12-12,12H12c-6.6,0-12-5.4-12-12V396z"/>
<path class="st4" d="M296,396h84l0,0c0,4.4-3.6,8-8,8h-68C299.6,404,296,400.4,296,396L296,396z"/>
<g>
	<path class="st5" d="M74,52c0-3.3,2.7-6,6-6h516c3.3,0,6,2.7,6,6v320H74V52z"/>
</g>
<path class="st6" d="M74,52c0-3.3,2.7-6,6-6h516c3.3,0,6,2.7,6,6v22H74V52z"/>
<circle class="st7" cx="90" cy="62" r="6"/>
<circle class="st8" cx="124" cy="62" r="6"/>
<circle class="st9" cx="106" cy="62" r="6"/>
<path class="st10" d="M182,174c0-2.2,1.8-4,4-4h18c2.2,0,4,1.8,4,4l0,0c0,2.2-1.8,4-4,4h-18C183.8,178,182,176.2,182,174L182,174z"
	/>
<path class="st10" d="M196,342c0-2.2,1.8-4,4-4h38c2.2,0,4,1.8,4,4l0,0c0,2.2-1.8,4-4,4h-38C197.8,346,196,344.2,196,342L196,342z"
	/>
<path class="st10" d="M182,310c0-2.2,1.8-4,4-4h32c2.2,0,4,1.8,4,4l0,0c0,2.2-1.8,4-4,4h-32C183.8,314,182,312.2,182,310L182,310z"
	/>
<path class="st10" d="M180,358c0-2.2,1.8-4,4-4h52c2.2,0,4,1.8,4,4l0,0c0,2.2-1.8,4-4,4h-52C181.8,362,180,360.2,180,358L180,358z"
	/>
<path class="st10" d="M148,262c0-2.2,1.8-4,4-4h32c2.2,0,4,1.8,4,4l0,0c0,2.2-1.8,4-4,4h-32C149.8,266,148,264.2,148,262L148,262z"
	/>
<path class="st10" d="M90,230c0-2.2,1.8-4,4-4h32c2.2,0,4,1.8,4,4l0,0c0,2.2-1.8,4-4,4H94C91.8,234,90,232.2,90,230L90,230z"/>
<path class="st10" d="M162,126c0-2.2,1.8-4,4-4h52c2.2,0,4,1.8,4,4l0,0c0,2.2-1.8,4-4,4h-52C163.8,130,162,128.2,162,126L162,126z"
	/>
<path class="st10" d="M132,110c0-2.2,1.8-4,4-4h32c2.2,0,4,1.8,4,4l0,0c0,2.2-1.8,4-4,4h-32C133.8,114,132,112.2,132,110L132,110z"
	/>
<path class="st10" d="M144,294c0-2.2,1.8-4,4-4h32c2.2,0,4,1.8,4,4l0,0c0,2.2-1.8,4-4,4h-32C145.8,298,144,296.2,144,294L144,294z"
	/>
<path class="st10" d="M200,278c0-2.2,1.8-4,4-4h18c2.2,0,4,1.8,4,4l0,0c0,2.2-1.8,4-4,4h-18C201.8,282,200,280.2,200,278L200,278z"
	/>
<path class="st11" d="M90,278c0-2.2,1.8-4,4-4h26c2.2,0,4,1.8,4,4l0,0c0,2.2-1.8,4-4,4H94C91.8,282,90,280.2,90,278L90,278z"/>
<path class="st11" d="M90,294c0-2.2,1.8-4,4-4h38c2.2,0,4,1.8,4,4l0,0c0,2.2-1.8,4-4,4H94C91.8,298,90,296.2,90,294L90,294z"/>
<path class="st11" d="M130,326c0-2.2,1.8-4,4-4h26c2.2,0,4,1.8,4,4l0,0c0,2.2-1.8,4-4,4h-26C131.8,330,130,328.2,130,326L130,326z"
	/>
<path class="st11" d="M132,214c0-2.2,1.8-4,4-4h32c2.2,0,4,1.8,4,4l0,0c0,2.2-1.8,4-4,4h-32C133.8,218,132,216.2,132,214L132,214z"
	/>
<path class="st11" d="M138,358c0-2.2,1.8-4,4-4h26c2.2,0,4,1.8,4,4l0,0c0,2.2-1.8,4-4,4h-26C139.8,362,138,360.2,138,358L138,358z"
	/>
<path class="st11" d="M248,358c0-2.2,1.8-4,4-4h18c2.2,0,4,1.8,4,4l0,0c0,2.2-1.8,4-4,4h-18C249.8,362,248,360.2,248,358L248,358z"
	/>
<path class="st12" d="M176,242h38c2.2,0,4,1.8,4,4l0,0c0,2.2-1.8,4-4,4h-38c-2.2,0-4-1.8-4-4l0,0C172,243.8,173.8,242,176,242z"/>
<path class="st12" d="M196,290h52c2.2,0,4,1.8,4,4l0,0c0,2.2-1.8,4-4,4h-52c-2.2,0-4-1.8-4-4l0,0C192,291.8,193.8,290,196,290z"/>
<path class="st12" d="M94,210h26c2.2,0,4,1.8,4,4l0,0c0,2.2-1.8,4-4,4H94c-2.2,0-4-1.8-4-4l0,0C90,211.8,91.8,210,94,210z"/>
<path class="st12" d="M136,274h52c2.2,0,4,1.8,4,4l0,0c0,2.2-1.8,4-4,4h-52c-2.2,0-4-1.8-4-4l0,0C132,275.8,133.8,274,136,274z"/>
<path class="st12" d="M118,306h52c2.2,0,4,1.8,4,4l0,0c0,2.2-1.8,4-4,4h-52c-2.2,0-4-1.8-4-4l0,0C114,307.8,115.8,306,118,306z"/>
<path class="st12" d="M176,322h52c2.2,0,4,1.8,4,4l0,0c0,2.2-1.8,4-4,4h-52c-2.2,0-4-1.8-4-4l0,0C172,323.8,173.8,322,176,322z"/>
<path class="st12" d="M282,274h32c2.2,0,4,1.8,4,4l0,0c0,2.2-1.8,4-4,4h-32c-2.2,0-4-1.8-4-4l0,0C278,275.8,279.8,274,282,274z"/>
<path class="st12" d="M94,354h32c2.2,0,4,1.8,4,4l0,0c0,2.2-1.8,4-4,4H94c-2.2,0-4-1.8-4-4l0,0C90,355.8,91.8,354,94,354z"/>
<path class="st12" d="M152,338h32c2.2,0,4,1.8,4,4l0,0c0,2.2-1.8,4-4,4h-32c-2.2,0-4-1.8-4-4l0,0C148,339.8,149.8,338,152,338z"/>
<path class="st12" d="M142,226h52c2.2,0,4,1.8,4,4l0,0c0,2.2-1.8,4-4,4h-52c-2.2,0-4-1.8-4-4l0,0C138,227.8,139.8,226,142,226z"/>
<path class="st13" d="M94,90h18c2.2,0,4,1.8,4,4l0,0c0,2.2-1.8,4-4,4H94c-2.2,0-4-1.8-4-4l0,0C90,91.8,91.8,90,94,90z"/>
<path class="st11" d="M172,94c0-2.2,1.8-4,4-4h18c2.2,0,4,1.8,4,4l0,0c0,2.2-1.8,4-4,4h-18C173.8,98,172,96.2,172,94L172,94z"/>
<path class="st11" d="M114,174c0-2.2,1.8-4,4-4h52c2.2,0,4,1.8,4,4l0,0c0,2.2-1.8,4-4,4h-52C115.8,178,114,176.2,114,174L114,174z"
	/>
<path class="st11" d="M148,142c0-2.2,1.8-4,4-4h38c2.2,0,4,1.8,4,4l0,0c0,2.2-1.8,4-4,4h-38C149.8,146,148,144.2,148,142L148,142z"
	/>
<path class="st11" d="M114,126c0-2.2,1.8-4,4-4h32c2.2,0,4,1.8,4,4l0,0c0,2.2-1.8,4-4,4h-32C115.8,130,114,128.2,114,126L114,126z"
	/>
<path class="st11" d="M138,246c0-2.2,1.8-4,4-4h18c2.2,0,4,1.8,4,4l0,0c0,2.2-1.8,4-4,4h-18C139.8,250,138,248.2,138,246L138,246z"
	/>
<path class="st12" d="M128,90h32c2.2,0,4,1.8,4,4l0,0c0,2.2-1.8,4-4,4h-32c-2.2,0-4-1.8-4-4l0,0C124,91.8,125.8,90,128,90z"/>
<path class="st14" d="M94,194h52c2.2,0,4,1.8,4,4l0,0c0,2.2-1.8,4-4,4H94c-2.2,0-4-1.8-4-4l0,0C90,195.8,91.8,194,94,194z"/>
<path class="st14" d="M162,194h32c2.2,0,4,1.8,4,4l0,0c0,2.2-1.8,4-4,4h-32c-2.2,0-4-1.8-4-4l0,0C158,195.8,159.8,194,162,194z"/>
<path class="st12" d="M220,170h26c2.2,0,4,1.8,4,4l0,0c0,2.2-1.8,4-4,4h-26c-2.2,0-4-1.8-4-4l0,0C216,171.8,217.8,170,220,170z"/>
<path class="st12" d="M254,138h38c2.2,0,4,1.8,4,4l0,0c0,2.2-1.8,4-4,4h-38c-2.2,0-4-1.8-4-4l0,0C250,139.8,251.8,138,254,138z"/>
<path class="st12" d="M206,138h32c2.2,0,4,1.8,4,4l0,0c0,2.2-1.8,4-4,4h-32c-2.2,0-4-1.8-4-4l0,0C202,139.8,203.8,138,206,138z"/>
<path class="st12" d="M176,154h32c2.2,0,4,1.8,4,4l0,0c0,2.2-1.8,4-4,4h-32c-2.2,0-4-1.8-4-4l0,0C172,155.8,173.8,154,176,154z"/>
<path class="st13" d="M118,138h18c2.2,0,4,1.8,4,4l0,0c0,2.2-1.8,4-4,4h-18c-2.2,0-4-1.8-4-4l0,0C114,139.8,115.8,138,118,138z"/>
<path class="st13" d="M134,154h26c2.2,0,4,1.8,4,4l0,0c0,2.2-1.8,4-4,4h-26c-2.2,0-4-1.8-4-4l0,0C130,155.8,131.8,154,134,154z"/>
<path class="st13" d="M238,274h26c2.2,0,4,1.8,4,4l0,0c0,2.2-1.8,4-4,4h-26c-2.2,0-4-1.8-4-4l0,0C234,275.8,235.8,274,238,274z"/>
<path class="st13" d="M118,338h18c2.2,0,4,1.8,4,4l0,0c0,2.2-1.8,4-4,4h-18c-2.2,0-4-1.8-4-4l0,0C114,339.8,115.8,338,118,338z"/>
<path class="st13" d="M184,210h18c2.2,0,4,1.8,4,4l0,0c0,2.2-1.8,4-4,4h-18c-2.2,0-4-1.8-4-4l0,0C180,211.8,181.8,210,184,210z"/>
<path class="st13" d="M118,258h18c2.2,0,4,1.8,4,4l0,0c0,2.2-1.8,4-4,4h-18c-2.2,0-4-1.8-4-4l0,0C114,259.8,115.8,258,118,258z"/>
<path class="st13" d="M94,242h32c2.2,0,4,1.8,4,4l0,0c0,2.2-1.8,4-4,4H94c-2.2,0-4-1.8-4-4l0,0C90,243.8,91.8,242,94,242z"/>
<path class="st13" d="M94,106h26c2.2,0,4,1.8,4,4l0,0c0,2.2-1.8,4-4,4H94c-2.2,0-4-1.8-4-4l0,0C90,107.8,91.8,106,94,106z"/>
<circle cx="328" cy="14" r="8"/>
<circle cx="352" cy="14" r="4"/>
</svg>
