<?xml version="1.0" encoding="utf-8"?>
<!-- Generator: Adobe Illustrator 26.0.0, SVG Export Plug-In . SVG Version: 6.00 Build 0)  -->
<svg version="1.1" id="Layer_1" xmlns="http://www.w3.org/2000/svg" xmlns:xlink="http://www.w3.org/1999/xlink" x="0px" y="0px"
	 viewBox="0 0 30 30" style="enable-background:new 0 0 30 30;" xml:space="preserve">
<style type="text/css">
	.st0{fill:url(#SVGID_1_);}
</style>
<linearGradient id="SVGID_1_" gradientUnits="userSpaceOnUse" x1="-5.936" y1="22.209" x2="36.7562" y2="11.587" gradientTransform="matrix(1 0 0 -1 0 32)">
	<stop  offset="0" style="stop-color:#DFDFDF"/>
	<stop  offset="0.3132" style="stop-color:#4C5055"/>
	<stop  offset="1" style="stop-color:#191E24"/>
</linearGradient>
<path class="st0" d="M27.8,0H2.2C1.6,0,1.1,0.2,0.6,0.6C0.2,1.1,0,1.6,0,2.2v25.6c0,0.6,0.2,1.2,0.6,1.6c0.4,0.4,1,0.6,1.6,0.6h25.6
	c0.6,0,1.2-0.2,1.6-0.6c0.4-0.4,0.6-1,0.6-1.6V2.2c0-0.6-0.2-1.2-0.6-1.6C28.9,0.2,28.4,0,27.8,0z M8.9,25.6H4.4V11.2h4.5V25.6z
	 M6.7,9.2c-0.5,0-1-0.2-1.4-0.4C4.8,8.5,4.5,8.1,4.3,7.6c-0.2-0.5-0.2-1-0.1-1.5c0.1-0.5,0.3-1,0.7-1.3c0.4-0.4,0.8-0.6,1.3-0.7
	c0.5-0.1,1,0,1.5,0.2c0.5,0.2,0.9,0.5,1.2,1c0.3,0.4,0.4,0.9,0.4,1.4c0,0.3-0.1,0.7-0.2,1C9,8,8.8,8.3,8.5,8.5
	C8.3,8.7,8,8.9,7.7,9.1C7.4,9.2,7,9.3,6.7,9.2z M25.6,25.6h-4.5v-7.8c0-2.3-1-3-2.2-3c-1.3,0-2.6,1-2.6,3.1v7.8h-4.5V11.2H16v2H16
	c0.4-0.9,2-2.4,4.3-2.4c2.5,0,5.2,1.5,5.2,5.9L25.6,25.6z"/>
</svg>
