<?xml version="1.0" encoding="utf-8"?>
<svg version="1.1" id="Layer_1" xmlns="http://www.w3.org/2000/svg" xmlns:xlink="http://www.w3.org/1999/xlink" x="0px" y="0px"
	 viewBox="0 0 252.9 189.6" style="enable-background:new 0 0 252.9 189.6;" xml:space="preserve">
<style type="text/css">
	.st0{fill:url(#SVGID_1_);}
</style>
<g transform="translate(1.4065934065934016 1.4065934065934016) scale(2.81 2.81)">
	<linearGradient id="SVGID_1_" x1="-0.612048" y1="13.1916" x2="39.2938" y2="17.3706"
		gradientUnits="userSpaceOnUse">
		<stop stop-color="#DFDFDF" />
		<stop offset="0.352685" stop-color="#7E8083" />
		<stop offset="1" stop-color="#191E24" />
	</linearGradient>
	<path class="st0" d="M75,67H14C6,67-0.5,60.5-0.5,52.5V14C-0.5,6,6-0.5,14-0.5H75C83-0.5,89.5,6,89.5,14v38.6
		C89.5,60.5,83,67,75,67z M14,3.7C8.3,3.7,3.7,8.3,3.7,14v38.6c0,5.6,4.6,10.2,10.2,10.2H75c5.6,0,10.2-4.6,10.2-10.2V14
		c0-5.6-4.6-10.2-10.2-10.2H14z"/>
	<path d="M10.5,14.2C21.3,24.7,32.2,35.2,43,45.7c2,2,5.1-1.1,3.1-3.1C35.2,32.1,24.4,21.6,13.6,11.1C11.6,9.1,8.5,12.2,10.5,14.2
		L10.5,14.2z"/>
	<path d="M46,45.7c10.8-10.5,21.6-21.1,32.4-31.6c2-2-1.1-5.1-3.1-3.1C64.6,21.6,53.8,32.1,43,42.7C40.9,44.6,44,47.7,46,45.7
		L46,45.7z"/>
	<path d="M78.3,53.2C71.1,46.4,64,39.6,56.8,32.7c-2-1.9-5.1,1.1-3.1,3.1c7.2,6.8,14.4,13.6,21.6,20.5
		C77.3,58.2,80.4,55.1,78.3,53.2L78.3,53.2z"/>
	<path d="M13.9,56.3c7.2-6.8,14.4-13.6,21.6-20.5c2-1.9-1-5-3.1-3.1C25.2,39.6,18,46.4,10.9,53.2C8.8,55.1,11.9,58.2,13.9,56.3
		L13.9,56.3z"/>
</g>
</svg>
