<svg xmlns="http://www.w3.org/2000/svg" viewBox="0 0 1188.11823 391.13918"><defs><style>.a{fill:#343c8c;}.a,.b{fill-rule:evenodd;}.b{fill:#4b348b;}</style></defs><path class="a" d="M133.4,52.4C74.20272,89.48647,31.60791,151.136,14.20053,218.50023-.28592,276.94159,4.55964,340.295,27.3,396h50a333.855,333.855,0,0,1-19.39941-44.30029,348.20394,348.20394,0,0,1-10-46.19986C47.6,295.7,47.1,276,46.8,266.3a358.17651,358.17651,0,0,1,6.30067-43.19991c7.71772-31.93624,23.09744-63.147,42.50023-89.59966C109.008,116.67872,124.9914,99.76571,142,86.6V48h-1.5l-7.1,4.4" transform="translate(-5.98174 -8.36079)"/><path class="b" d="M261.1,9c-24.92467,1.75151-50.756,7.86385-74.29987,16.20042C181.7,27.4,171.5,31.8,166.4,33.9c-7.06563,3.75956-15.65129,8.60777-22.9,12,.1,9.7.4,29.4.6,39.1h.8C207.707,37.03844,289.03537,21.62926,365.5001,40.20054c49.14234,12.60121,92.39248,39.63378,127.4,76.09946v-4.4C438.16109,40.94465,350.20414,2.88195,261.1,9M890.8,219.5c-6.79283.76436-14.98166,4.30386-21.29991,6.60033C866,228.3,858.8,232.8,855.3,235c-3.5,3.7-10.6,11.1-14.1,14.8-2,3.4-6,10.3-7.9,13.7-1.4,3.5-4.2,10.5-5.5,14-1,4.7-3,14.3-4,19v28c.9,4,2.6,12,3.4,16,1.7,4.1,5,12.3,6.6,16.4,2.3,3.4,6.9,10.4,9.2,13.8,3.5,3.3,10.4,9.8,13.9,13.1,3.4,1.9,10.3,5.7,13.7,7.6,3.7,1.3,11.3,4,15,5.3,3.9.6,11.7,1.9,15.6,2.5,6.1-.3,18.3-.9,24.4-1.2a177.37271,177.37271,0,0,0,32.5-10.3v-2.7c-2.87391-7.99077-6.97617-20.22521-10-28.1-2.5,1.3-7.7,3.9-10.2,5.2-3.8,1-11.4,2.9-15.1,3.9h-16.3c-3-.8-8.9-2.3-11.9-3.1-2.2-1.3-6.8-3.9-9-5.3-2.8-2.7-8.5-8.1-11.3-10.8-1.7-3.3-5.3-10-7-13.4-.9-3.2-2.6-9.8-3.4-13v-22c.9-3.7,2.6-11.3,3.5-15,1.7-3.6,5.2-10.9,6.9-14.5,2.6-2.7,7.9-8.1,10.5-10.8,5.86941-3.63926,13.2222-5.74036,19.90026-7.2994C908.1001,250.8,915.00006,250.8,918.40009,250.8c3.6.8,10.8,2.4,14.4,3.2,3.50142,1.32147,9.81061,4.84712,13.4,5.8,3.1-7.7,9.2-23.3,12.3-31-.3-.5-.8-1.4-1.1-1.8A239.45955,239.45955,0,0,0,928.9,218.80033c-11.20887.13247-27.43082-2.25558-38.1.69967m-769.1,3.2-.7.7V395.1h36v-111c17.00178,33.71511,55.29471,79.463,76.5,110.9,8.8,0,26.7.1,35.5.1v-173c-8.8.1-26.7.4-35.5.5-.3,28.4-.8,85.6-1,114-.80982-4.6131-5.76039-10.80181-7.79955-15.00018C207.7,296.8,173.5,246.9,156.5,222.1H122.3l-.6.6m489.8.4c-1.34318,42.85445.38375,128.34824,0,171.4,9.6.1,28.9.4,38.5.5V326h14.1c1.1.6,3.3,1.7,4.4,2.3.7,1,2.3,3.1,3,4.1,8.1,15.5,24.3,46.6,32.4,62.1,11.5.1,34.6.4,46.1.5v-1c-11.2-18.9-33.8-57-45-76v-2.1h3.8c4-2,11.9-6,15.9-8,2.6-2.8,7.8-8.3,10.4-11,1.2-2.7,3.7-8,4.9-10.7a75.26273,75.26273,0,0,0,1.99938-20.80008c-.79937-3.2-2.29937-9.59994-2.99938-12.79994-1.3-2.4-4-7.3-5.3-9.7-2.4-2.3-7.3-6.9-9.8-9.1-3.6-1.7-10.9-5-14.5-6.7-5-1.1-14.9-3.3-19.9-4.3-19.3-.3-58.2-.8-77.5-1L611.5,223.1m473.30005,8.7c-28.75737,49.46735-43.03192,107.3116-52.70007,163.3H1071c2.1-11.1,5.5-29.4,7.6-40.5,16.3-.1,49.1-.4,65.4-.5a262.83775,262.83775,0,0,1,7.4,41h42.7c-9.96849-59.82468-26.49719-121.10367-58.89991-172.9h-44.6l-5.80005,9.6M290,274.9c-.02125,15.177-.64583,57.855,2.10072,72.19987C293.1,350.5,295.2,357.2,296.2,360.6c1.6,2.9,4.7,8.8,6.2,11.8,2.8,2.8,8.5,8.4,11.3,11.2,3.2,1.9,9.6,5.7,12.8,7.5,4.5,1.4,13.5,4.3,18,5.8,4.2.6,12.7,1.9,17,2.6,10,0,30-.1,40-.2,11.59278-1.50218,26.06917-3.19424,37.5-5.5V223H401c-.1,36-.4,108.5-.5,144.5-3.7.7-11.3,2-15,2.6-4.8-.3-14.5-.8-19.4-1-3.1-.8-9.4-2.4-12.5-3.2-2.4-1.2-7.2-3.6-9.6-4.8-1.8-1.6-5.4-4.7-7.1-6.3-1.3-2.2-3.9-6.7-5.2-8.9-.7-2.8-2-8.5-2.7-11.3V223.1H290v51.8m163-36.4V254h53V395h39V254h52V223H453v15.5M766,309v86h38V223H766v86m210,0v86h39V223H976v86m131.5-48.8c-8.87232,19.66864-17.90445,42.82292-22.5,63.8h53c-6.51416-23.623-15.49507-50.26379-26.6001-72.1l-3.8999,8.3M650,275.5v22.8c12.441-.86995,29.44879.63533,41.09985-4.40022C693.1,292.1,697,288.5,699,286.8c.8-2.7,2.4-8.2,3.2-10.9-.3-2.1-.9-6.3-1.3-8.4-.9-1.5-2.8-4.7-3.8-6.2-1.7-1.2-5-3.7-6.7-5-1.7-.6-5.3-1.9-7-2.6-8.3-.2-25.2-.7-33.5-1v22.8" transform="translate(-5.98174 -8.36079)"/><path class="a" d="M142,86.6" transform="translate(-5.98174 -8.36079)"/><polygon class="b" points="138.918 76.639 136.018 78.239 134.518 39.639 137.518 37.539 138.918 76.639"/></svg>