<?xml version="1.0" encoding="utf-8"?>
<!-- Generator: Adobe Illustrator 26.0.0, SVG Export Plug-In . SVG Version: 6.00 Build 0)  -->
<svg version="1.1" id="Layer_1" xmlns:serif="http://www.serif.com/"
	 xmlns="http://www.w3.org/2000/svg" xmlns:xlink="http://www.w3.org/1999/xlink" x="0px" y="0px" viewBox="0 0 245.5 210.7"
	 style="enable-background:new 0 0 245.5 210.7;" xml:space="preserve">
<style type="text/css">
	.st0{fill:none;}
	.st1{fill-rule:evenodd;clip-rule:evenodd;fill:#FE6500;}
</style>
<g id="Artboard1" transform="matrix(1.01046,0,0,0.882257,-1.2554,-15.6802)">
	<rect x="-1.6" y="481.1" class="st0" width="1900" height="295.9"/>
	<g id="surface1" transform="matrix(0.989647,0,0,1.13346,4.07423,-1.49588)">
		<g>
			<path class="st1" d="M-2.9,135.5v-26.3c5.4-0.3,9.4-1.1,12.2-2.4c2.7-1.3,5-3.5,7-6.6c2-3.1,3.4-7,4.1-11.7
				c0.6-3.5,0.9-9.6,0.9-18.3c0-14.2,0.7-24,2-29.7c1.3-5.6,3.7-10.1,7.2-13.5c3.5-3.4,8.5-6.1,15.1-8c4.5-1.3,11.6-2,21.2-2h5.9
				v26.2c-8.2,0-13.5,0.4-15.8,1.4c-2.3,0.9-4,2.3-5.2,4.1c-1.1,1.9-1.7,5-1.7,9.6c0,4.6-0.3,13.4-0.9,26.2
				c-0.4,7.3-1.3,13.1-2.9,17.6c-1.5,4.5-3.5,8.2-5.9,11.1c-2.4,2.9-6,6-11,9.1c4.4,2.5,7.9,5.4,10.7,8.7c2.8,3.3,4.9,7.4,6.4,12.1
				c1.5,4.7,2.5,11.1,2.9,19.1c0.5,12.1,0.7,19.9,0.7,23.2c0,4.8,0.6,8.2,1.8,10.1c1.2,1.9,2.9,3.3,5.3,4.3c2.4,1,7.5,1.5,15.5,1.5
				v26.2h-5.9c-9.9,0-17.6-0.8-22.9-2.4c-5.3-1.6-9.8-4.2-13.4-7.8c-3.6-3.6-6.1-8.2-7.3-13.6c-1.2-5.3-1.9-13.8-1.9-25.4
				c0-13.4-0.6-22.2-1.8-26.2c-1.6-5.9-4.1-10.1-7.3-12.6C8.9,137.3,3.9,135.9-2.9,135.5z"/>
		</g>
		<g>
			<rect x="70.6" y="17" class="st1" width="33.2" height="138.5"/>
		</g>
		<g>
			<rect x="84.9" y="89.2" class="st1" width="4.4" height="138.5"/>
		</g>
		<g>
			<path class="st1" d="M242.7,135.5v-26.3c-5.4-0.3-9.4-1.1-12.2-2.4c-2.7-1.3-5-3.5-7-6.6c-2-3.1-3.4-7-4.1-11.7
				c-0.6-3.5-0.9-9.6-0.9-18.3c0-14.2-0.7-24-2-29.7c-1.3-5.6-3.7-10.1-7.2-13.5c-3.5-3.4-8.5-6.1-15.1-8c-4.5-1.3-11.6-2-21.2-2
				h-5.8v26.2c8.2,0,13.5,0.4,15.8,1.4c2.3,0.9,4,2.3,5.2,4.1c1.1,1.9,1.7,5,1.7,9.6c0,4.6,0.3,13.4,0.9,26.2
				c0.4,7.3,1.3,13.1,2.9,17.6c1.5,4.5,3.5,8.2,5.9,11.1c2.4,2.9,6,6,11,9.1c-4.4,2.5-7.9,5.4-10.7,8.7c-2.8,3.3-4.9,7.4-6.4,12.1
				c-1.5,4.7-2.5,11.1-2.9,19.1c-0.5,12.1-0.7,19.9-0.7,23.2c0,4.8-0.6,8.2-1.8,10.1c-1.2,1.9-2.9,3.3-5.3,4.3
				c-2.4,1-7.5,1.5-15.5,1.5v26.2h5.8c10,0,17.6-0.8,22.9-2.4c5.3-1.6,9.8-4.2,13.4-7.8c3.7-3.6,6.1-8.2,7.4-13.6
				c1.2-5.3,1.9-13.8,1.9-25.4c0-13.4,0.6-22.2,1.8-26.2c1.6-5.9,4.1-10.1,7.4-12.6C230.9,137.3,235.9,135.9,242.7,135.5z"/>
		</g>
		<g>
			<rect x="136.1" y="17" class="st1" width="33.2" height="138.5"/>
		</g>
		<g>
			<rect x="150.5" y="89.2" class="st1" width="4.4" height="138.5"/>
		</g>
	</g>
</g>
</svg>
