<?xml version="1.0" encoding="utf-8"?>
<svg version="1.1" id="Layer_1" xmlns="http://www.w3.org/2000/svg" xmlns:xlink="http://www.w3.org/1999/xlink" x="0px" y="0px"
	 viewBox="0 0 33.4 36.6" style="enable-background:new 0 0 33.4 36.6;" xml:space="preserve">
<style type="text/css">
	.st0{fill:none;}
	.st1{fill:#EA4335;}
	.st2{fill:#FBBC04;}
	.st3{fill:#4285F4;}
	.st4{fill:#34A853;}
</style>
<path class="st0" d="M-4.2-1.7h40v40h-40C-4.2,38.3-4.2-1.7-4.2-1.7z"/>
<g>
	<path class="st1" d="M15.5,17.5L0.1,33.6l0,0c0.5,1.7,2.1,3,4,3c0.8,0,1.5-0.2,2.1-0.6l0,0l17.4-9.9L15.5,17.5z"/>
	<path class="st2" d="M31.1,14.7L31.1,14.7l-7.5-4.3l-8.4,7.4l8.5,8.3l7.5-4.2c1.3-0.7,2.2-2.1,2.2-3.6
		C33.3,16.8,32.4,15.4,31.1,14.7z"/>
	<path class="st3" d="M0.1,3C0,3.3,0,3.7,0,4.1v28.5c0,0.4,0,0.7,0.1,1.1l16-15.7L0.1,3z"/>
	<path class="st4" d="M15.6,18.3l8-7.9L6.3,0.6C5.7,0.2,4.9,0,4.1,0c-1.9,0-3.6,1.3-4,3l0,0L15.6,18.3z"/>
</g>
</svg>
