<?xml version="1.0" encoding="utf-8"?>
<!-- Generator: Adobe Illustrator 26.0.0, SVG Export Plug-In . SVG Version: 6.00 Build 0)  -->
<svg version="1.1" id="Layer_1" xmlns="http://www.w3.org/2000/svg" xmlns:xlink="http://www.w3.org/1999/xlink" x="0px" y="0px"
	 viewBox="0 0 172 206.7" style="enable-background:new 0 0 172 206.7;" xml:space="preserve">
<style type="text/css">
	.st0{fill:#FF3E00;}
	.st1{fill:#FFFFFF;}
</style>
<symbol  id="a" viewBox="-46.6 -56 93.2 112">
	<path class="st0" d="M40.7-41.2C30.3-56.1,9.7-60.5-5.1-51l-26.1,16.6c-7.1,4.5-12,11.8-13.5,20c-1.2,6.9-0.2,14,3.1,20.2
		c-2.2,3.4-3.8,7.2-4.5,11.2c-1.5,8.4,0.5,17.1,5.4,24.1C-30.3,56.1-9.7,60.5,5.1,51l26.1-16.6c7.1-4.5,12-11.8,13.5-20
		c1.2-6.9,0.2-14-3.1-20.2c2.2-3.4,3.8-7.2,4.5-11.2C47.6-25.5,45.6-34.2,40.7-41.2"/>
	<path class="st1" d="M-7.7,42.6c-8.4,2.2-17.3-1.1-22.2-8.2c-3-4.2-4.2-9.4-3.3-14.5c0.2-0.8,0.4-1.6,0.6-2.4l0.5-1.5l1.3,1
		c3.1,2.3,6.5,4,10.2,5.1l1,0.3l-0.1,1c-0.1,1.4,0.3,2.7,1.1,3.9c1.5,2.2,4.2,3.1,6.7,2.5c0.6-0.2,1.1-0.4,1.6-0.7l26.1-16.6
		c1.3-0.8,2.2-2.1,2.5-3.6c0.3-1.5-0.1-3.1-1-4.4c-1.5-2.2-4.2-3.1-6.7-2.5C10,1.9,9.4,2.2,8.9,2.5L-1,8.8c-1.6,1-3.4,1.8-5.3,2.3
		c-8.4,2.2-17.3-1.1-22.2-8.2c-3-4.2-4.2-9.4-3.3-14.5c0.9-5,3.9-9.4,8.1-12.1L2.4-40.3c1.6-1,3.4-1.8,5.3-2.3
		c8.4-2.2,17.3,1.1,22.2,8.2c3,4.2,4.2,9.4,3.3,14.5c-0.2,0.8-0.4,1.6-0.6,2.4l-0.5,1.5l-1.3-1c-3.1-2.3-6.5-4-10.2-5.1l-1-0.3
		l0.1-1c0.1-1.4-0.3-2.7-1.1-3.9c-1.5-2.2-4.2-3.1-6.7-2.5c-0.6,0.2-1.1,0.4-1.6,0.7l-26.1,16.6c-1.3,0.8-2.2,2.1-2.4,3.6
		c-0.3,1.5,0.1,3.1,1,4.4c1.5,2.2,4.2,3.1,6.7,2.5c0.6-0.2,1.1-0.4,1.6-0.7L1-8.8c1.6-1,3.4-1.8,5.3-2.3c8.4-2.2,17.3,1.1,22.2,8.2
		c3,4.2,4.2,9.4,3.3,14.5c-0.9,5-3.8,9.4-8.1,12.1L-2.4,40.3C-4,41.3-5.8,42.1-7.7,42.6"/>
</symbol>
<g>
	<defs>
		<rect id="SVGID_1_" x="-9.9" width="181.9" height="206.7"/>
	</defs>
	<clipPath id="SVGID_00000057827934988558967230000013635609508139786409_">
		<use xlink:href="#SVGID_1_"  style="overflow:visible;"/>
	</clipPath>
	<g transform="matrix(1 0 0 1 0 0)" style="clip-path:url(#SVGID_00000057827934988558967230000013635609508139786409_);">
		
			<use xlink:href="#a"  width="93.2" height="112" x="-46.6" y="-56" transform="matrix(1.8453 0 0 1.8453 85.9911 103.3381)" style="overflow:visible;"/>
	</g>
</g>
</svg>
